<?xml version="1.0" encoding="UTF-8" standalone="no"?>
<svg width="1000" height="700" version="1.1" xmlns="http://www.w3.org/2000/svg">
  <!-- Background -->
  <rect width="1000" height="700" fill="#f8f9fa" rx="10" ry="10"/>
  
  <!-- Title -->
  <text x="500" y="40" font-family="Arial, sans-serif" font-size="24" font-weight="bold" text-anchor="middle" fill="#333">Private Equity AP + Treasury Database</text>
  <text x="500" y="70" font-family="Arial, sans-serif" font-size="16" text-anchor="middle" fill="#666">Entity Relationship Diagram</text>
  
  <!-- Funds Table -->
  <g>
    <rect x="80" y="120" width="180" height="140" rx="5" ry="5" fill="#e3f2fd" stroke="#1976d2" stroke-width="2"/>
    <text x="170" y="145" font-family="Arial, sans-serif" font-size="16" font-weight="bold" text-anchor="middle" fill="#1976d2">Funds</text>
    <line x1="80" y1="155" x2="260" y2="155" stroke="#1976d2" stroke-width="1"/>
    <text x="90" y="175" font-family="Arial, sans-serif" font-size="12" fill="#333">PK fund_id</text>
    <text x="90" y="195" font-family="Arial, sans-serif" font-size="12" fill="#333">fund_name</text>
    <text x="90" y="215" font-family="Arial, sans-serif" font-size="12" fill="#333">entity</text>
    <text x="90" y="235" font-family="Arial, sans-serif" font-size="12" fill="#333">description</text>
    <text x="90" y="255" font-family="Arial, sans-serif" font-size="12" fill="#333">is_active</text>
  </g>

  <!-- Deal Allocations Table -->
  <g>
    <rect x="80" y="320" width="180" height="140" rx="5" ry="5" fill="#e8f5e9" stroke="#388e3c" stroke-width="2"/>
    <text x="170" y="345" font-family="Arial, sans-serif" font-size="16" font-weight="bold" text-anchor="middle" fill="#388e3c">Deal Allocations</text>
    <line x1="80" y1="355" x2="260" y2="355" stroke="#388e3c" stroke-width="1"/>
    <text x="90" y="375" font-family="Arial, sans-serif" font-size="12" fill="#333">PK allocation_id</text>
    <text x="90" y="395" font-family="Arial, sans-serif" font-size="12" fill="#333">deal_name</text>
    <text x="90" y="415" font-family="Arial, sans-serif" font-size="12" fill="#333">FK fund_id</text>
    <text x="90" y="435" font-family="Arial, sans-serif" font-size="12" fill="#333">allocation_percentage</text>
    <text x="90" y="455" font-family="Arial, sans-serif" font-size="12" fill="#333">FK approver_id</text>
  </g>

  <!-- Vendor List Table -->
  <g>
    <rect x="320" y="120" width="200" height="180" rx="5" ry="5" fill="#fff3e0" stroke="#e65100" stroke-width="2"/>
    <text x="420" y="145" font-family="Arial, sans-serif" font-size="16" font-weight="bold" text-anchor="middle" fill="#e65100">Vendor List</text>
    <line x1="320" y1="155" x2="520" y2="155" stroke="#e65100" stroke-width="1"/>
    <text x="330" y="175" font-family="Arial, sans-serif" font-size="12" fill="#333">PK vendor_id</text>
    <text x="330" y="195" font-family="Arial, sans-serif" font-size="12" fill="#333">vendor_name</text>
    <text x="330" y="215" font-family="Arial, sans-serif" font-size="12" fill="#333">vendor_type</text>
    <text x="330" y="235" font-family="Arial, sans-serif" font-size="12" fill="#333">contact_info</text>
    <text x="330" y="255" font-family="Arial, sans-serif" font-size="12" fill="#333">address</text>
    <text x="330" y="275" font-family="Arial, sans-serif" font-size="12" fill="#333">FK approver_id</text>
    <text x="330" y="295" font-family="Arial, sans-serif" font-size="12" fill="#333">is_1099_eligible</text>
  </g>

  <!-- Vendor Allocation Table -->
  <g>
    <rect x="320" y="350" width="200" height="120" rx="5" ry="5" fill="#fff3e0" stroke="#e65100" stroke-width="2" stroke-dasharray="5,2"/>
    <text x="420" y="375" font-family="Arial, sans-serif" font-size="16" font-weight="bold" text-anchor="middle" fill="#e65100">Vendor Allocation</text>
    <line x1="320" y1="385" x2="520" y2="385" stroke="#e65100" stroke-width="1"/>
    <text x="330" y="405" font-family="Arial, sans-serif" font-size="12" fill="#333">FK vendor_id</text>
    <text x="330" y="425" font-family="Arial, sans-serif" font-size="12" fill="#333">vendor_name</text>
    <text x="330" y="445" font-family="Arial, sans-serif" font-size="12" fill="#333">FK fund_id</text>
    <text x="330" y="465" font-family="Arial, sans-serif" font-size="12" fill="#333">allocation_percentage</text>
  </g>

  <!-- Invoices Table -->
  <g>
    <rect x="580" y="120" width="180" height="180" rx="5" ry="5" fill="#f3e5f5" stroke="#7b1fa2" stroke-width="2"/>
    <text x="670" y="145" font-family="Arial, sans-serif" font-size="16" font-weight="bold" text-anchor="middle" fill="#7b1fa2">Invoices</text>
    <line x1="580" y1="155" x2="760" y2="155" stroke="#7b1fa2" stroke-width="1"/>
    <text x="590" y="175" font-family="Arial, sans-serif" font-size="12" fill="#333">PK invoice_id</text>
    <text x="590" y="195" font-family="Arial, sans-serif" font-size="12" fill="#333">FK vendor_id</text>
    <text x="590" y="215" font-family="Arial, sans-serif" font-size="12" fill="#333">FK fund_id</text>
    <text x="590" y="235" font-family="Arial, sans-serif" font-size="12" fill="#333">invoice_number</text>
    <text x="590" y="255" font-family="Arial, sans-serif" font-size="12" fill="#333">invoice_date</text>
    <text x="590" y="275" font-family="Arial, sans-serif" font-size="12" fill="#333">due_date</text>
    <text x="590" y="295" font-family="Arial, sans-serif" font-size="12" fill="#333">total_amount</text>
  </g>

  <!-- Invoice Allocation Table -->
  <g>
    <rect x="580" y="350" width="180" height="100" rx="5" ry="5" fill="#f3e5f5" stroke="#7b1fa2" stroke-width="2" stroke-dasharray="5,2"/>
    <text x="670" y="375" font-family="Arial, sans-serif" font-size="16" font-weight="bold" text-anchor="middle" fill="#7b1fa2">Invoice Allocation</text>
    <line x1="580" y1="385" x2="760" y2="385" stroke="#7b1fa2" stroke-width="1"/>
    <text x="590" y="405" font-family="Arial, sans-serif" font-size="12" fill="#333">FK invoice_id</text>
    <text x="590" y="425" font-family="Arial, sans-serif" font-size="12" fill="#333">FK fund_id</text>
    <text x="590" y="445" font-family="Arial, sans-serif" font-size="12" fill="#333">allocation_percentage</text>
  </g>

  <!-- Payments Table -->
  <g>
    <rect x="580" y="500" width="180" height="120" rx="5" ry="5" fill="#fce4ec" stroke="#c2185b" stroke-width="2"/>
    <text x="670" y="525" font-family="Arial, sans-serif" font-size="16" font-weight="bold" text-anchor="middle" fill="#c2185b">Payments</text>
    <line x1="580" y1="535" x2="760" y2="535" stroke="#c2185b" stroke-width="1"/>
    <text x="590" y="555" font-family="Arial, sans-serif" font-size="12" fill="#333">PK payment_id</text>
    <text x="590" y="575" font-family="Arial, sans-serif" font-size="12" fill="#333">FK invoice_id</text>
    <text x="590" y="595" font-family="Arial, sans-serif" font-size="12" fill="#333">payment_date</text>
    <text x="590" y="615" font-family="Arial, sans-serif" font-size="12" fill="#333">amount_paid</text>
  </g>

  <!-- Employees Table -->
  <g>
    <rect x="820" y="120" width="180" height="160" rx="5" ry="5" fill="#e0f7fa" stroke="#0097a7" stroke-width="2"/>
    <text x="910" y="145" font-family="Arial, sans-serif" font-size="16" font-weight="bold" text-anchor="middle" fill="#0097a7">Employees</text>
    <line x1="820" y1="155" x2="1000" y2="155" stroke="#0097a7" stroke-width="1"/>
    <text x="830" y="175" font-family="Arial, sans-serif" font-size="12" fill="#333">PK ID</text>
    <text x="830" y="195" font-family="Arial, sans-serif" font-size="12" fill="#333">first_name</text>
    <text x="830" y="215" font-family="Arial, sans-serif" font-size="12" fill="#333">last_name</text>
    <text x="830" y="235" font-family="Arial, sans-serif" font-size="12" fill="#333">role</text>
    <text x="830" y="255" font-family="Arial, sans-serif" font-size="12" fill="#333">email_address</text>
    <text x="830" y="275" font-family="Arial, sans-serif" font-size="12" fill="#333">is_active</text>
  </g>

  <!-- Relationships -->
  <!-- Fund to Deal Allocations -->
  <line x1="170" y1="260" x2="170" y2="320" stroke="#333" stroke-width="2"/>
  <polygon points="170,320 165,310 175,310" fill="#333"/>
  
  <!-- Fund to Vendor Allocation -->
  <line x1="260" y1="190" x2="320" y2="445" stroke="#333" stroke-width="2"/>
  <polygon points="320,445 310,440 313,432" fill="#333"/>
  
  <!-- Fund to Invoices -->
  <line x1="260" y1="170" x2="580" y2="215" stroke="#333" stroke-width="2"/>
  <polygon points="580,215 570,220 570,210" fill="#333"/>
  
  <!-- Fund to Invoice Allocation -->
  <line x1="260" y1="210" x2="580" y2="425" stroke="#333" stroke-width="2"/>
  <polygon points="580,425 570,428 572,418" fill="#333"/>
  
  <!-- Vendor to Vendor Allocation -->
  <line x1="420" y1="300" x2="420" y2="350" stroke="#333" stroke-width="2"/>
  <polygon points="420,350 415,340 425,340" fill="#333"/>
  
  <!-- Vendor to Invoices -->
  <line x1="520" y1="175" x2="580" y2="195" stroke="#333" stroke-width="2"/>
  <polygon points="580,195 570,200 570,190" fill="#333"/>
  
  <!-- Invoice to Invoice Allocation -->
  <line x1="670" y1="300" x2="670" y2="350" stroke="#333" stroke-width="2"/>
  <polygon points="670,350 665,340 675,340" fill="#333"/>
  
  <!-- Invoice to Payments -->
  <line x1="670" y1="300" x2="670" y2="500" stroke="#333" stroke-width="2"/>
  <polygon points="670,500 665,490 675,490" fill="#333"/>
  
  <!-- Employees to Vendor Approver -->
  <line x1="820" y1="175" x2="520" y2="275" stroke="#333" stroke-width="2"/>
  <polygon points="520,275 530,270 530,280" fill="#333"/>
  
  <!-- Employees to Deal Allocation Approver -->
  <line x1="820" y1="195" x2="260" y2="455" stroke="#333" stroke-width="2"/>
  <polygon points="260,455 270,450 270,460" fill="#333"/>
  
  <!-- Legend -->
  <rect x="780" y="580" width="200" height="100" rx="5" ry="5" fill="#f8f9fa" stroke="#333" stroke-width="1"/>
  <text x="880" y="600" font-family="Arial, sans-serif" font-size="14" font-weight="bold" text-anchor="middle" fill="#333">Legend</text>
  
  <rect x="790" y="615" width="15" height="15" fill="#fff" stroke="#333" stroke-width="1"/>
  <text x="815" y="628" font-family="Arial, sans-serif" font-size="12" text-anchor="start" fill="#333">Primary Table</text>
  
  <rect x="790" y="640" width="15" height="15" fill="#fff" stroke="#333" stroke-width="1" stroke-dasharray="5,2"/>
  <text x="815" y="653" font-family="Arial, sans-serif" font-size="12" text-anchor="start" fill="#333">Junction Table</text>
  
  <line x1="870" y1="628" x2="890" y2="628" stroke="#333" stroke-width="2"/>
  <polygon points="890,628 880,633 880,623" fill="#333"/>
  <text x="910" y="632" font-family="Arial, sans-serif" font-size="12" text-anchor="start" fill="#333">Relationship</text>
</svg>