<?xml version="1.0" encoding="UTF-8" standalone="no"?>
<svg width="900" height="500" version="1.1" xmlns="http://www.w3.org/2000/svg">
  <!-- Background -->
  <rect width="900" height="500" fill="#f8f9fa" rx="10" ry="10"/>

  <!-- Title -->
  <text x="450" y="40" font-family="Arial, sans-serif" font-size="22" font-weight="bold" text-anchor="middle" fill="#333">AP + Treasury Workflow</text>
  <text x="450" y="70" font-family="Arial, sans-serif" font-size="16" text-anchor="middle" fill="#666">System Process Flow</text>

  <!-- Workflow Steps -->
  <!-- Step 1: Invoice Entry -->
  <g>
    <rect x="50" y="120" width="160" height="80" rx="8" ry="8" fill="#e3f2fd" stroke="#1976d2" stroke-width="2"/>
    <text x="130" y="155" font-family="Arial, sans-serif" font-size="16" font-weight="bold" text-anchor="middle" fill="#1976d2">Invoice Entry</text>
    <text x="130" y="180" font-family="Arial, sans-serif" font-size="12" text-anchor="middle" fill="#333">Invoice + Vendor Data</text>
  </g>

  <!-- Arrow 1 -->
  <line x1="210" y1="160" x2="260" y2="160" stroke="#666" stroke-width="2"/>
  <polygon points="260,160 250,155 250,165" fill="#666"/>

  <!-- Step 2: Fund Allocation -->
  <g>
    <rect x="260" y="120" width="160" height="80" rx="8" ry="8" fill="#e8f5e9" stroke="#388e3c" stroke-width="2"/>
    <text x="340" y="155" font-family="Arial, sans-serif" font-size="16" font-weight="bold" text-anchor="middle" fill="#388e3c">Fund Allocation</text>
    <text x="340" y="180" font-family="Arial, sans-serif" font-size="12" text-anchor="middle" fill="#333">Default or Custom %</text>
  </g>

  <!-- Arrow 2 -->
  <line x1="420" y1="160" x2="470" y2="160" stroke="#666" stroke-width="2"/>
  <polygon points="470,160 460,155 460,165" fill="#666"/>

  <!-- Step 3: Approval -->
  <g>
    <rect x="470" y="120" width="160" height="80" rx="8" ry="8" fill="#fff3e0" stroke="#e65100" stroke-width="2"/>
    <text x="550" y="155" font-family="Arial, sans-serif" font-size="16" font-weight="bold" text-anchor="middle" fill="#e65100">Approval</text>
    <text x="550" y="180" font-family="Arial, sans-serif" font-size="12" text-anchor="middle" fill="#333">By Designated Approver</text>
  </g>

  <!-- Arrow 3 -->
  <line x1="630" y1="160" x2="680" y2="160" stroke="#666" stroke-width="2"/>
  <polygon points="680,160 670,155 670,165" fill="#666"/>

  <!-- Step 4: Payment -->
  <g>
    <rect x="680" y="120" width="160" height="80" rx="8" ry="8" fill="#f3e5f5" stroke="#7b1fa2" stroke-width="2"/>
    <text x="760" y="155" font-family="Arial, sans-serif" font-size="16" font-weight="bold" text-anchor="middle" fill="#7b1fa2">Payment</text>
    <text x="760" y="180" font-family="Arial, sans-serif" font-size="12" text-anchor="middle" fill="#333">Full or Partial</text>
  </g>

  <!-- Supporting Processes -->
  <!-- Vendor Management -->
  <g>
    <rect x="170" y="250" width="180" height="70" rx="8" ry="8" fill="#e0f7fa" stroke="#0097a7" stroke-width="2"/>
    <text x="260" y="285" font-family="Arial, sans-serif" font-size="16" font-weight="bold" text-anchor="middle" fill="#0097a7">Vendor Management</text>
    <text x="260" y="305" font-family="Arial, sans-serif" font-size="12" text-anchor="middle" fill="#333">W-9, 1099 Tracking</text>
  </g>

  <!-- Deal Structure -->
  <g>
    <rect x="360" y="250" width="180" height="70" rx="8" ry="8" fill="#fce4ec" stroke="#c2185b" stroke-width="2"/>
    <text x="450" y="285" font-family="Arial, sans-serif" font-size="16" font-weight="bold" text-anchor="middle" fill="#c2185b">Deal Structure</text>
    <text x="450" y="305" font-family="Arial, sans-serif" font-size="12" text-anchor="middle" fill="#333">Multi-Fund Allocations</text>
  </g>

  <!-- Reporting -->
  <g>
    <rect x="550" y="250" width="180" height="70" rx="8" ry="8" fill="#fff8e1" stroke="#ff8f00" stroke-width="2"/>
    <text x="640" y="285" font-family="Arial, sans-serif" font-size="16" font-weight="bold" text-anchor="middle" fill="#ff8f00">Reporting</text>
    <text x="640" y="305" font-family="Arial, sans-serif" font-size="12" text-anchor="middle" fill="#333">Audit + Treasury</text>
  </g>

  <!-- Connector lines to supporting processes -->
  <line x1="130" y1="200" x2="200" y2="250" stroke="#666" stroke-width="1.5" stroke-dasharray="5,3"/>
  <line x1="340" y1="200" x2="260" y2="250" stroke="#666" stroke-width="1.5" stroke-dasharray="5,3"/>
  <line x1="340" y1="200" x2="420" y2="250" stroke="#666" stroke-width="1.5" stroke-dasharray="5,3"/>
  <line x1="550" y1="200" x2="480" y2="250" stroke="#666" stroke-width="1.5" stroke-dasharray="5,3"/>
  <line x1="760" y1="200" x2="660" y2="250" stroke="#666" stroke-width="1.5" stroke-dasharray="5,3"/>

  <!-- Outcomes -->
  <g>
    <rect x="100" y="370" width="200" height="80" rx="8" ry="8" fill="#f1f8e9" stroke="#558b2f" stroke-width="2"/>
    <text x="200" y="400" font-family="Arial, sans-serif" font-size="16" font-weight="bold" text-anchor="middle" fill="#558b2f">Business Outcomes</text>
    <text x="200" y="425" font-family="Arial, sans-serif" font-size="12" text-anchor="middle" fill="#333">• 70% AP Processing Reduction</text>
    <text x="200" y="445" font-family="Arial, sans-serif" font-size="12" text-anchor="middle" fill="#333">• Enhanced Financial Controls</text>
  </g>

  <g>
    <rect x="350" y="370" width="200" height="80" rx="8" ry="8" fill="#e8eaf6" stroke="#3949ab" stroke-width="2"/>
    <text x="450" y="400" font-family="Arial, sans-serif" font-size="16" font-weight="bold" text-anchor="middle" fill="#3949ab">Audit Benefits</text>
    <text x="450" y="425" font-family="Arial, sans-serif" font-size="12" text-anchor="middle" fill="#333">• Transparent Fund Allocations</text>
    <text x="450" y="445" font-family="Arial, sans-serif" font-size="12" text-anchor="middle" fill="#333">• Automated Compliance</text>
  </g>

  <g>
    <rect x="600" y="370" width="200" height="80" rx="8" ry="8" fill="#ffebee" stroke="#c62828" stroke-width="2"/>
    <text x="700" y="400" font-family="Arial, sans-serif" font-size="16" font-weight="bold" text-anchor="middle" fill="#c62828">Technical Value</text>
    <text x="700" y="425" font-family="Arial, sans-serif" font-size="12" text-anchor="middle" fill="#333">• No ERP Needed</text>
    <text x="700" y="445" font-family="Arial, sans-serif" font-size="12" text-anchor="middle" fill="#333">• Maintainable by Non-IT Staff</text>
  </g>

  <!-- Connector lines to outcomes -->
  <line x1="260" y1="320" x2="180" y2="370" stroke="#666" stroke-width="1.5" stroke-dasharray="5,3"/>
  <line x1="450" y1="320" x2="450" y2="370" stroke="#666" stroke-width="1.5" stroke-dasharray="5,3"/>
  <line x1="640" y1="320" x2="700" y2="370" stroke="#666" stroke-width="1.5" stroke-dasharray="5,3"/>
</svg>